<svg id="Group_100914" data-name="Group 100914" xmlns="http://www.w3.org/2000/svg" width="18.677" height="23.322" viewBox="0 0 18.677 23.322">
  <g id="Group_100913" data-name="Group 100913" transform="translate(0)">
    <path id="Path_11954" data-name="Path 11954" d="M241.736,28.663c-3.963-4.377-4.863-7.781-4.863-7.781a6.173,6.173,0,0,0-1.459,1.008l-.973,11.149.973,9.528h0a8.655,8.655,0,0,0,8.655-8.655A8.264,8.264,0,0,0,241.736,28.663Z" transform="translate(-226.076 -19.93)" fill="#231c3e"/>
    <path id="Path_11955" data-name="Path 11955" d="M73.137,44.9a6.663,6.663,0,0,0-.608,2.967,1.739,1.739,0,0,1-2.968,1.238l-.8-.8s-1.187,1.637-1.391,1.945A8.656,8.656,0,0,0,74.6,63.67V42.992A6.538,6.538,0,0,0,73.137,44.9Z" transform="translate(-65.258 -41.032)" fill="#69608b"/>
    <g id="Group_100910" data-name="Group 100910">
      <path id="Path_11956" data-name="Path 11956" d="M252.422,8.274a25.767,25.767,0,0,1-3.79-5.335,12.285,12.285,0,0,1-.919-2.162L247.508,0l-.734.327a6.317,6.317,0,0,0-1.18.74l-.486.857.486,1.008a6.326,6.326,0,0,1,1.087-.966,24.414,24.414,0,0,0,4.728,7.224,7.787,7.787,0,0,1,2.156,4.792,7.98,7.98,0,0,1-7.971,7.971h0l-.486.881.486.486h0a9.349,9.349,0,0,0,9.338-9.338A8.876,8.876,0,0,0,252.422,8.274Z" transform="translate(-236.255)" fill="#231c3e"/>
      <path id="Path_11957" data-name="Path 11957" d="M54.659,42a7.988,7.988,0,0,1-1.036-10.05c.106-.161.533-.757.9-1.271l.233.233A2.422,2.422,0,0,0,58.9,29.186a6.041,6.041,0,0,1,.536-2.657,5.7,5.7,0,0,1,.847-1.243V23.421a7.32,7.32,0,0,0-2.071,2.5,7.4,7.4,0,0,0-.68,3.277,1.055,1.055,0,0,1-1.8.751L54.36,28.577l-.47.649c-.049.067-1.2,1.653-1.408,1.97a9.332,9.332,0,0,0,7.8,14.48V44.307A7.926,7.926,0,0,1,54.659,42Z" transform="translate(-50.94 -22.353)" fill="#231c3e"/>
    </g>
    <g id="Group_100911" data-name="Group 100911" transform="translate(3.989 9.394)">
      <path id="Path_11958" data-name="Path 11958" d="M231.6,206.042h-.015l-1.14,5.349,1.14,5.349h.015a5.349,5.349,0,1,0,0-10.7Z" transform="translate(-226.251 -206.042)" fill="#676088"/>
      <path id="Path_11959" data-name="Path 11959" d="M138.441,211.4a5.349,5.349,0,0,0,5.334,5.349v-10.7A5.349,5.349,0,0,0,138.441,211.4Z" transform="translate(-138.441 -206.046)" fill="#221c3c"/>
    </g>
    <g id="Group_100912" data-name="Group 100912" transform="translate(5.369 11.513)">
      <path id="Path_11960" data-name="Path 11960" d="M248.5,254.5H246.98l-1.4,2.052-.471,1.886.471.334Z" transform="translate(-241.625 -254.413)" fill="#d9e7ec"/>
      <path id="Path_11961" data-name="Path 11961" d="M271.316,317.472a1.751,1.751,0,1,0,1.669,1.749A1.609,1.609,0,0,0,271.316,317.472Zm0,2.53c-.2,0-.395-.179-.395-.78s.2-.781.395-.781.395.179.395.781S271.513,320,271.316,320Z" transform="translate(-265.045 -314.512)" fill="#d9e7ec"/>
      <path id="Path_11962" data-name="Path 11962" d="M193.633,303.741,195,301.733v-2.22l-2.887,4.228Z" transform="translate(-191.049 -297.371)" fill="#fafcfd"/>
      <path id="Path_11963" data-name="Path 11963" d="M172.037,254.284a1.671,1.671,0,1,0-1.669,1.749A1.609,1.609,0,0,0,172.037,254.284Zm-2.063,0c0-.6.2-.781.395-.781s.395.179.395.781-.2.78-.395.78S169.974,254.885,169.974,254.284Z" transform="translate(-168.7 -252.535)" fill="#fafcfd"/>
    </g>
  </g>
</svg>
