<svg id="Group_100935" data-name="Group 100935" xmlns="http://www.w3.org/2000/svg" width="22.293" height="29.719" viewBox="0 0 22.293 29.719">
  <g id="Group_100934" data-name="Group 100934" transform="translate(0 0)">
    <g id="object_4_">
      <g id="Group_100932" data-name="Group 100932">
        <path id="Path_4031" data-name="Path 4031" d="M82.752,7.426h-1.33V6.275a6.273,6.273,0,1,0-12.547,0V7.426h-1.4a3.514,3.514,0,0,0-3.51,3.511V22.75a6.977,6.977,0,0,0,6.969,6.969h8.355a6.977,6.977,0,0,0,6.969-6.969V10.936A3.514,3.514,0,0,0,82.752,7.426ZM70.924,6.275a4.225,4.225,0,0,1,8.449,0V7.426H70.924ZM84.213,22.75a4.926,4.926,0,0,1-4.92,4.92H70.938a4.926,4.926,0,0,1-4.92-4.92V10.936a1.463,1.463,0,0,1,1.462-1.462H82.752a1.463,1.463,0,0,1,1.461,1.462Z" transform="translate(-63.969 0)" fill="#261c42"/>
      </g>
      <g id="Group_100933" data-name="Group 100933" transform="translate(4.906 11.171)">
        <path id="Path_4032" data-name="Path 4032" d="M160.018,192.465a1.024,1.024,0,0,0-1.024,1.024v2.176a4.225,4.225,0,0,1-8.449,0v-2.176a1.024,1.024,0,0,0-2.049,0v2.176a6.273,6.273,0,0,0,12.547,0v-2.176A1.025,1.025,0,0,0,160.018,192.465Z" transform="translate(-148.496 -192.465)" fill="#261c42"/>
      </g>
    </g>
  </g>
</svg>
