<svg xmlns="http://www.w3.org/2000/svg" width="46.926" height="44.677" viewBox="0 0 46.926 44.677">
  <g id="Group_102662" data-name="Group 102662" transform="translate(0.001 -0.39)">
    <path id="Path_59931" data-name="Path 59931" d="M348.963,42.447l.062,0a.757.757,0,0,0,.105-.008,1.7,1.7,0,0,1,1.665,1.7.76.76,0,0,0,1.521,0,3.224,3.224,0,0,0-2.53-3.144v-.731a.76.76,0,0,0-1.521,0v.765a3.219,3.219,0,0,0,.832,6.328,1.7,1.7,0,1,1-1.7,1.7.76.76,0,0,0-1.521,0,3.224,3.224,0,0,0,2.387,3.109V53a.76.76,0,0,0,1.521,0v-.8a3.219,3.219,0,0,0-.689-6.363,1.7,1.7,0,0,1-.133-3.39Zm0,0" transform="translate(-313.007 -35.397)" fill="#241c3f"/>
    <path id="Path_59932" data-name="Path 59932" d="M36.132.39A10.909,10.909,0,0,0,25.968,7.528H7.1a.8.8,0,0,0-.76.794l-.18,26.671H.779a.748.748,0,0,0-.78.725V39.1A5.972,5.972,0,0,0,5.7,45.05v.017H29.175v-.022c.19.007.268.022.389.022h.016A5.972,5.972,0,0,0,35.542,39.1V21.983c.19.01.391.016.588.016a10.8,10.8,0,0,0,0-21.609ZM5.99,43.547h0A4.472,4.472,0,0,1,1.52,39.095V36.514H23.568v2.57a5.964,5.964,0,0,0,1.76,4.226c.08.08.179.141.262.236Zm28.031-4.452a4.451,4.451,0,0,1-4.442,4.452h-.014a4.484,4.484,0,0,1-4.476-4.462V35.718a.7.7,0,0,0-.726-.725H7.679L7.853,9.049H25.546a11.424,11.424,0,0,0-.208,2.112,10.721,10.721,0,0,0,.918,4.351H19.074a.76.76,0,1,0,0,1.521H27.08a10.729,10.729,0,0,0,6.941,4.761Zm2.11-18.616a9.274,9.274,0,1,1,9.274-9.274A9.273,9.273,0,0,1,36.132,20.479Zm0,0" fill="#241c3f"/>
    <path id="Path_59933" data-name="Path 59933" d="M126.2,149.812a2.357,2.357,0,1,0,2.434,2.356A2.4,2.4,0,0,0,126.2,149.812Zm0,3.192a.839.839,0,1,1,.913-.836A.878.878,0,0,1,126.2,153Zm4.12-.839a.76.76,0,0,0,.76.76h10.136a.76.76,0,1,0,0-1.521H131.076A.76.76,0,0,0,130.315,152.165ZM126.2,143.2a2.358,2.358,0,1,0,2.434,2.357A2.4,2.4,0,0,0,126.2,143.2Zm0,3.192a.839.839,0,1,1,.913-.836.878.878,0,0,1-.913.836Zm0,10.025a2.357,2.357,0,1,0,2.434,2.356A2.4,2.4,0,0,0,126.2,156.42Zm0,3.192a.839.839,0,1,1,.913-.836A.877.877,0,0,1,126.2,159.612Zm15.016-1.555H131.076a.76.76,0,0,0,0,1.521h10.136a.76.76,0,1,0,0-1.521Zm0,0" transform="translate(-112.001 -129.241)" fill="#241c3f"/>
  </g>
</svg>
