<svg xmlns="http://www.w3.org/2000/svg" width="11.074" height="24" viewBox="0 0 11.074 24">
  <g id="Group_102576" data-name="Group 102576" transform="translate(-0.499 0.001)">
    <path id="Path_59922" data-name="Path 59922" d="M11.425,7.922A1.9,1.9,0,0,0,9.8,6.655a2.29,2.29,0,0,0,.178-1.728A1.856,1.856,0,0,0,7.914,3.736a3.113,3.113,0,0,0,.331-2.056A2.079,2.079,0,0,0,6.531.143,5.976,5.976,0,0,0,4.682.022a.4.4,0,0,0-.362.347.39.39,0,0,0,.272.419.99.99,0,0,1,.719.677C5.424,1.948,5.263,2.63,3,3.621A2.217,2.217,0,0,0,1.612,5.03,2.451,2.451,0,0,0,2.01,6.9a2.523,2.523,0,0,0-.763.355A1.656,1.656,0,0,0,.5,8.639a2.11,2.11,0,0,0,.507,1.479.614.614,0,0,0-.069.284v.456A1.814,1.814,0,0,0,2.271,12.6l.5,1.868h0L4.41,20.58h0l.738,2.753a.9.9,0,0,0,1.737,0L9.763,12.6A1.814,1.814,0,0,0,11.1,10.857V10.4a.614.614,0,0,0-.065-.274A2.033,2.033,0,0,0,11.425,7.922ZM6.206,23.151a.2.2,0,0,1-.379,0L5.278,21.1c.44.185.887.36,1.338.522Zm1.185-4.418-.311-.117a.352.352,0,0,0-.253.656c.125.048.253.1.38.142L6.8,20.942c-.594-.215-1.181-.452-1.753-.707l-.535-2c.253.129.509.254.766.374a.352.352,0,0,0,.3-.638c-.443-.206-.883-.429-1.311-.662l-.57-2.127a22,22,0,0,0,4.1,2.038Zm.587-2.19a21.178,21.178,0,0,1-4.562-2.381l-.4-1.494h.9A19.607,19.607,0,0,0,8.376,15.06Zm.581-2.166a19.088,19.088,0,0,1-3.393-1.709H9.018Zm1.8-4.6H4.431a.352.352,0,1,0,0,.7h5.963v.372a1.109,1.109,0,0,1-.96,1.1h0l-.073.007h0l-.071,0H2.747l-.071,0h0L2.6,11.954h0a1.109,1.109,0,0,1-.96-1.1v-.372H2.784a.352.352,0,1,0,0-.7H1.671A1.365,1.365,0,0,1,1.2,8.642c0-.8.911-1.08,1.229-1.114a.43.43,0,0,0,.043-.008A5.452,5.452,0,0,0,2.9,8a.352.352,0,0,0,.482-.513,8.69,8.69,0,0,1-.675-.807,1.961,1.961,0,0,1-.417-1.472,1.565,1.565,0,0,1,.994-.944C4.722,3.636,6.328,2.73,6,1.305A1.482,1.482,0,0,0,5.718.721c.763.064,1.657.315,1.841,1.115A2.447,2.447,0,0,1,7.243,3.5,3.069,3.069,0,0,1,6.211,4.549a.352.352,0,1,0,.3.638,2.923,2.923,0,0,0,.934-.773l.029.005a3.779,3.779,0,0,0,.428.019c.71.006,1.227.058,1.407.684a1.6,1.6,0,0,1-.142,1.235,6.519,6.519,0,0,1-1,1.059.352.352,0,1,0,.446.544,6.524,6.524,0,0,0,.679-.652.51.51,0,0,0,.093.013,1.361,1.361,0,0,1,1.373.818A1.324,1.324,0,0,1,10.359,9.782Zm0,0" transform="translate(0 0)"/>
  </g>
</svg>
