<svg xmlns="http://www.w3.org/2000/svg" width="72.541" height="69.012" viewBox="0 0 72.541 69.012">
  <g id="Group_102584" data-name="Group 102584" transform="translate(0 -12.437)">
    <path id="Path_36748" data-name="Path 36748" d="M282.8,46.943l-8.212-9.117,1.286-12.206L263.87,23.078l-6.125-10.641-11.211,5.01-1.513,29.5,1.513,29.5,11.211,5.01,6.125-10.641,12.008-2.542-1.286-12.206Z" transform="translate(-210.264 0)" fill="#231c3e"/>
    <path id="Path_36749" data-name="Path 36749" d="M25.06,12.437,18.934,23.078,6.926,25.62,8.212,37.826,0,46.943l8.212,9.117L6.926,68.267l12.008,2.542L25.06,81.45l11.211-5.01V17.447Z" fill="#413374"/>
    <path id="Path_36750" data-name="Path 36750" d="M261.74,182.559l-3.175-2.834L246.534,193.2l-1.513,3.35,1.513,3.041Z" transform="translate(-210.264 -143.557)" fill="#f7f0eb"/>
    <path id="Path_36751" data-name="Path 36751" d="M148.357,233.1l-3.009,3.009L158,248.756l3-3.362V239l-3.177,3.559Z" transform="translate(-124.73 -189.357)" fill="#fffbf5"/>
  </g>
</svg>
