<svg xmlns="http://www.w3.org/2000/svg" width="19.535" height="22.618" viewBox="0 0 19.535 22.618">
  <g id="Group_102670" data-name="Group 102670" transform="translate(-53.316 -21.334)">
    <path id="Path_59946" data-name="Path 59946" d="M72.773,31.42a9.767,9.767,0,0,0-9.527-8.543l.67-.664a.514.514,0,1,0-.724-.73L61.563,23.1a.514.514,0,0,0,0,.727l1.628,1.642a.514.514,0,1,0,.73-.724l-.83-.837a8.739,8.739,0,0,1,5.455,15.561.514.514,0,1,0,.643.8A9.71,9.71,0,0,0,72.773,31.42Zm-9.794,8.4a.514.514,0,1,0-.73.724l.83.837a8.739,8.739,0,0,1-5.457-15.56.514.514,0,0,0-.644-.8,9.768,9.768,0,0,0,5.943,17.39l-.67.665a.514.514,0,1,0,.724.73L64.6,42.188a.514.514,0,0,0,0-.727Z" transform="translate(0 0)"/>
    <path id="Path_59947" data-name="Path 59947" d="M220.875,184.525c-.073-.028-.142-.054-.2-.08s-.142-.058-.228-.091c-.487-.185-.751-.331-.751-.573a.536.536,0,0,1,.332-.383,1.334,1.334,0,0,1,1.42.23.514.514,0,1,0,.609-.828,2.769,2.769,0,0,0-1.076-.488v-.465a.514.514,0,1,0-1.028,0v.49a2.056,2.056,0,0,0-.39.145,1.509,1.509,0,0,0-.9,1.3c0,1,.955,1.36,1.414,1.534.066.025.127.048.178.07.074.032.158.065.249.1.5.193.73.32.73.564a.535.535,0,0,1-.332.383,1.333,1.333,0,0,1-1.42-.23.514.514,0,1,0-.609.828,2.777,2.777,0,0,0,1.076.491v.494a.514.514,0,1,0,1.028,0v-.52a2.057,2.057,0,0,0,.39-.147,1.509,1.509,0,0,0,.9-1.3c0-.993-.9-1.339-1.391-1.524Z" transform="translate(-157.384 -152.288)"/>
    <path id="Path_59948" data-name="Path 59948" d="M144.321,138.667a5.654,5.654,0,1,0,5.654,5.654A5.654,5.654,0,0,0,144.321,138.667Zm0,10.281a4.626,4.626,0,1,1,4.626-4.626A4.626,4.626,0,0,1,144.321,148.948Z" transform="translate(-81.238 -111.679)"/>
  </g>
</svg>
