<svg id="Group_102554" data-name="Group 102554" xmlns="http://www.w3.org/2000/svg" width="24" height="24" viewBox="0 0 24 24">
  <g id="Group_102556" data-name="Group 102556">
    <g id="Group_102555" data-name="Group 102555">
      <g id="Group_102554-2" data-name="Group 102554">
        <path id="Path_59900" data-name="Path 59900" d="M24,4.881V3.661A3.665,3.665,0,0,0,20.339,0H8.136A3.665,3.665,0,0,0,4.475,3.661v1.22A3.654,3.654,0,0,0,5.84,7.729H3.661A3.665,3.665,0,0,0,0,11.39v1.22a3.665,3.665,0,0,0,3.661,3.661H5.026a3.654,3.654,0,0,0-1.365,2.847v1.22A3.665,3.665,0,0,0,7.322,24h12.2a3.665,3.665,0,0,0,3.661-3.661v-1.22a3.665,3.665,0,0,0-3.661-3.661H18.16a3.654,3.654,0,0,0,1.365-2.847V11.39A3.654,3.654,0,0,0,18.16,8.542h2.179A3.665,3.665,0,0,0,24,4.881ZM5.3,3.414c0-.043.009-.085.015-.127s.014-.1.024-.152.017-.081.026-.122.024-.1.038-.146.024-.081.038-.118.033-.095.051-.14.032-.076.048-.113.041-.09.064-.133.038-.072.059-.107.05-.085.077-.127.044-.068.067-.1.058-.081.089-.119.05-.063.076-.094.066-.074.1-.109.055-.058.083-.086.073-.068.111-.1.059-.052.09-.077.081-.061.122-.09.064-.047.1-.069.086-.053.129-.079.068-.041.1-.059.093-.046.14-.068.07-.033.105-.048.1-.037.15-.055.071-.026.107-.037C7.361.922,7.416.909,7.471.9c.035-.009.069-.019.1-.026.061-.012.122-.02.186-.028.03,0,.06-.01.091-.013.094-.009.189-.014.285-.014l12.2,0c.1,0,.191,0,.285.014.031,0,.061.009.091.013.062.009.125.016.186.028.035.007.07.017.1.026.055.013.109.026.163.041.036.011.071.025.107.037s.1.035.15.055.07.032.105.048.094.043.14.068.068.041.1.059.087.051.129.079.065.046.1.069.081.059.12.09.06.051.09.077.075.065.111.1.056.057.081.086.068.072.1.109.051.062.076.094.06.078.088.118.046.067.068.1.052.083.076.126.041.071.059.108.044.088.064.133.033.075.048.113.036.093.051.14.026.079.038.118.026.1.038.146.019.081.027.122.016.1.023.151.011.084.015.127a.312.312,0,0,0,0,.051l-.585.442a2.866,2.866,0,0,1-1.708.569H7.593a2.866,2.866,0,0,1-1.708-.569L5.3,3.465A.307.307,0,0,1,5.3,3.414ZM22.373,20.339a2.851,2.851,0,0,1-2.847,2.847H7.322a2.851,2.851,0,0,1-2.847-2.847v-.407H6.1a1.627,1.627,0,1,0,3.254,0v-.814a.414.414,0,0,1,.422-.407h.014a.384.384,0,0,1,.378.39s0,.008,0,.012a1.627,1.627,0,0,0,1.623,1.631H12.2a1.627,1.627,0,0,0,1.627-1.627.407.407,0,1,1,.814,0v1.22a1.627,1.627,0,0,0,3.254,0v-1.22a.407.407,0,1,1,.814,0,.814.814,0,0,0,.814.814h2.847Zm-2.847-4.068a2.851,2.851,0,0,1,2.847,2.847H19.525a1.22,1.22,0,0,0-2.441,0v1.22a.814.814,0,0,1-1.627,0v-1.22a1.22,1.22,0,1,0-2.441,0,.814.814,0,0,1-.814.814H11.8a.806.806,0,0,1-.575-.238.831.831,0,0,1-.239-.6A1.2,1.2,0,0,0,9.776,17.9H9.763a1.22,1.22,0,0,0-1.22,1.22v.814a.814.814,0,1,1-1.627,0v-.407a.407.407,0,0,0-.407-.407H4.475a2.851,2.851,0,0,1,2.847-2.847Zm-.814-4.881v1.22a2.851,2.851,0,0,1-2.847,2.847H3.661A2.851,2.851,0,0,1,.814,12.61V11.39A2.851,2.851,0,0,1,3.661,8.542h12.2A2.851,2.851,0,0,1,18.712,11.39ZM8.136,7.729A2.851,2.851,0,0,1,5.288,4.881V4.475l.109.081a3.682,3.682,0,0,0,2.2.732H20.881a3.682,3.682,0,0,0,2.2-.732l.109-.081v.407a2.851,2.851,0,0,1-2.847,2.847Z" fill="#333"/>
        <path id="Path_59901" data-name="Path 59901" d="M208.047,32.773l.032.012h0l.287.108a10.072,10.072,0,0,0,7.071,0l.286-.108a.458.458,0,1,0-.288-.869l-.032.012-.286.107a9.153,9.153,0,0,1-6.427,0l-.286-.108a.458.458,0,1,0-.352.845Z" transform="translate(-197.784 -30.069)" fill="#333"/>
        <rect id="Rectangle_7944" data-name="Rectangle 7944" width="1" height="1" transform="translate(3 9.731)" fill="#333"/>
        <rect id="Rectangle_7945" data-name="Rectangle 7945" width="1" height="1" transform="translate(4.423 11.5)" fill="#333"/>
        <rect id="Rectangle_7946" data-name="Rectangle 7946" width="1" height="1" transform="translate(7.077 11.5)" fill="#333"/>
        <rect id="Rectangle_7947" data-name="Rectangle 7947" width="1" height="1" transform="translate(5.308 9.731)" fill="#333"/>
        <rect id="Rectangle_7948" data-name="Rectangle 7948" width="1" height="1" transform="translate(8.846 9.731)" fill="#333"/>
        <rect id="Rectangle_7949" data-name="Rectangle 7949" width="1" height="1" transform="translate(10.615 11.5)" fill="#333"/>
        <rect id="Rectangle_7950" data-name="Rectangle 7950" width="1" height="1" transform="translate(12.385 9.731)" fill="#333"/>
        <rect id="Rectangle_7951" data-name="Rectangle 7951" height="1" transform="translate(14.222 11.5)" fill="#333"/>
        <rect id="Rectangle_7952" data-name="Rectangle 7952" width="1" height="1" transform="translate(16.808 11.5)" fill="#333"/>
        <rect id="Rectangle_7953" data-name="Rectangle 7953" width="1" height="1" transform="translate(15.038 9.731)" fill="#333"/>
        <rect id="Rectangle_7954" data-name="Rectangle 7954" width="1" height="1" transform="translate(3 13.269)" fill="#333"/>
        <rect id="Rectangle_7955" data-name="Rectangle 7955" width="1" height="1" transform="translate(5.308 13.269)" fill="#333"/>
        <rect id="Rectangle_7956" data-name="Rectangle 7956" width="1" height="1" transform="translate(8.846 13.269)" fill="#333"/>
        <rect id="Rectangle_7957" data-name="Rectangle 7957" width="1" height="1" transform="translate(12.385 13.269)" fill="#333"/>
        <rect id="Rectangle_7958" data-name="Rectangle 7958" width="1" height="1" transform="translate(15.038 13.269)" fill="#333"/>
      </g>
    </g>
  </g>
</svg>
