<svg xmlns="http://www.w3.org/2000/svg" width="14.64" height="25" viewBox="0 0 14.64 25">
  <g id="Group_102579" data-name="Group 102579" transform="translate(71.319 -28.833)">
    <g id="g2383" transform="translate(-66.068 29.333)">
      <path id="path2385" d="M-13.577-56.173a1.059,1.059,0,0,1,.145-1.89,4.17,4.17,0,0,1,1.4-.243A5.029,5.029,0,0,1-8.5-56.521a.971.971,0,0,1-.238,1.5L-8.767-55" transform="translate(14.092 58.307)" fill="none" stroke="#000" stroke-linecap="round" stroke-linejoin="round" stroke-miterlimit="10" stroke-width="1"/>
    </g>
    <g id="g2387" transform="translate(-68.785 30.882)">
      <path id="path2389" d="M-13.621-82.625a.985.985,0,0,1-.366-1.391,9.873,9.873,0,0,1,1.008-1.422.988.988,0,0,1,1.192-.21l.881.47,3.5,1.867" transform="translate(14.138 85.763)" fill="none" stroke="#000" stroke-linecap="round" stroke-linejoin="round" stroke-miterlimit="10" stroke-width="1"/>
    </g>
    <g id="g2391" transform="translate(-65.716 32.382)">
      <path id="path2393" d="M0-79.013l3.672-2.024,1.335-.736.228-.125a.979.979,0,0,1,1.3.368A13.626,13.626,0,0,1,7.25-80a.986.986,0,0,1-.439,1.252" transform="translate(0 82.014)" fill="none" stroke="#000" stroke-linecap="round" stroke-linejoin="round" stroke-miterlimit="10" stroke-width="1"/>
    </g>
    <g id="g2395" transform="translate(-70.171 33.921)">
      <path id="path2397" d="M-213.673-89.847l-3.659-1.95-2.525-1.346-.028-.014a.982.982,0,0,0-1.343.514,16.5,16.5,0,0,0-.523,1.629.971.971,0,0,0,.485,1.111" transform="translate(221.788 93.259)" fill="none" stroke="#000" stroke-linecap="round" stroke-linejoin="round" stroke-miterlimit="10" stroke-width="1"/>
    </g>
    <g id="g2399" transform="translate(-70.785 37.42)">
      <path id="path2401" d="M-229.823-103.064l-3.656-1.953-3.454-1.844a.977.977,0,0,0-.48-.117.974.974,0,0,0-.948.818,17.124,17.124,0,0,0-.187,1.7.979.979,0,0,0,.52.913l.855.457,3.692,1.973" transform="translate(238.551 106.977)" fill="none" stroke="#000" stroke-linecap="round" stroke-linejoin="round" stroke-miterlimit="10" stroke-width="1"/>
    </g>
    <g id="g2403" transform="translate(-65.716 35.684)">
      <path id="path2405" d="M0-97.384H0L3.677-99.4l2.856-1.566a.974.974,0,0,1,.285-.1.978.978,0,0,1,1.123.731c.14.574.279,1.318.342,1.7a.977.977,0,0,1-.51,1.01l-.7.372" transform="translate(0 101.082)" fill="none" stroke="#000" stroke-linecap="round" stroke-linejoin="round" stroke-miterlimit="10" stroke-width="1"/>
    </g>
    <g id="g2407" transform="translate(-65.716 39.396)">
      <path id="path2409" d="M-186.3-3.057a.975.975,0,0,1,1.435.8c.018.337.027.776.027,1.121,0,.263-.007.525-.018.786a.97.97,0,0,1-.518.809l-1.15.611-3.192,1.7L-193.373.715l3.659-1.951Z" transform="translate(193.373 3.173)" fill="none" stroke="#000" stroke-linecap="round" stroke-linejoin="round" stroke-miterlimit="10" stroke-width="1"/>
    </g>
    <g id="g2411" transform="translate(-70.819 41.215)">
      <path id="path2413" d="M-56.782-118.463l-1.47-.784a.971.971,0,0,1-.508-.715c-.092-.648-.15-1.386-.178-1.973a.977.977,0,0,1,1.407-.925l.028.015" transform="translate(58.938 122.962)" fill="none" stroke="#000" stroke-linecap="round" stroke-linejoin="round" stroke-miterlimit="10" stroke-width="1"/>
    </g>
    <g id="g2415" transform="translate(-65.716 43.521)">
      <path id="path2417" d="M-180.389-3.071a.979.979,0,0,1,1.419,1.042,17.318,17.318,0,0,1-.461,2.02.974.974,0,0,1-.482.583l-.811.454-2.856,1.6L-187.24.576l3.659-1.951" transform="translate(187.24 3.188)" fill="none" stroke="#000" stroke-linecap="round" stroke-linejoin="round" stroke-miterlimit="10" stroke-width="1"/>
    </g>
    <g id="g2419" transform="translate(-70.102 45.596)">
      <path id="path2421" d="M-119.73-147.63l-.88.47a.983.983,0,0,1-1.181-.2,11.958,11.958,0,0,1-2.441-4.606.981.981,0,0,1,1.4-1.156l2.947,1.571" transform="translate(124.277 153.237)" fill="none" stroke="#000" stroke-linecap="round" stroke-linejoin="round" stroke-miterlimit="10" stroke-width="1"/>
    </g>
    <g id="g2423" transform="translate(-65.552 49.333)">
      <path id="path2425" d="M-92.038,0l-3.5,1.867" transform="translate(95.533)" fill="none" stroke="#000" stroke-linecap="round" stroke-linejoin="round" stroke-miterlimit="10" stroke-width="1"/>
    </g>
    <g id="g2427" transform="translate(-60.594 50.602)">
      <path id="path2429" d="M-25.691-12.845a.488.488,0,0,1-.488.488.488.488,0,0,1-.488-.488.488.488,0,0,1,.488-.488.488.488,0,0,1,.488.488" transform="translate(26.667 13.333)"/>
    </g>
    <g id="g2431" transform="translate(-59.168 47.736)">
      <path id="path2433" d="M0-1.548a.491.491,0,0,1,.683.621q-.187.44-.4.851" transform="translate(0 1.607)" fill="none" stroke="#000" stroke-linecap="round" stroke-linejoin="round" stroke-miterlimit="10" stroke-width="1"/>
    </g>
    <g id="g2435" transform="translate(-66.067 51.2)">
      <path id="path2437" d="M-115.346-37.136a4.27,4.27,0,0,1-2.321.723,4.17,4.17,0,0,1-1.4-.243,1.06,1.06,0,0,1-.149-1.888l0,0" transform="translate(119.726 38.547)" fill="none" stroke="#000" stroke-linecap="round" stroke-linejoin="round" stroke-miterlimit="10" stroke-width="1"/>
    </g>
  </g>
</svg>
