<svg xmlns="http://www.w3.org/2000/svg" width="42.838" height="12.987" viewBox="0 0 42.838 12.987">
  <g id="Group_102668" data-name="Group 102668" transform="translate(0 -175.6)">
    <path id="Path_59934" data-name="Path 59934" d="M184.8,192.639l2.176-12.239h3.4l-2.108,12.239Z" transform="translate(-169.093 -4.392)" fill="#3c58bf"/>
    <path id="Path_59935" data-name="Path 59935" d="M184.8,192.639l2.788-12.239h2.788l-2.108,12.239Z" transform="translate(-169.093 -4.392)" fill="#293688"/>
    <path id="Path_59936" data-name="Path 59936" d="M258.4,176.144a8.624,8.624,0,0,0-3.128-.544c-3.4,0-5.848,1.7-5.848,4.148,0,1.836,1.7,2.788,3.06,3.4s1.768,1.02,1.768,1.564c0,.816-1.088,1.224-2.04,1.224a7.391,7.391,0,0,1-3.264-.68l-.476-.2L248,187.839a11.025,11.025,0,0,0,3.876.68c3.6,0,5.984-1.7,5.984-4.284,0-1.428-.884-2.516-2.924-3.4-1.224-.612-1.972-.952-1.972-1.564,0-.544.612-1.088,1.972-1.088a6.237,6.237,0,0,1,2.584.476l.34.136Z" transform="translate(-226.921 0)" fill="#3c58bf"/>
    <path id="Path_59937" data-name="Path 59937" d="M258.4,176.144a8.624,8.624,0,0,0-3.128-.544c-3.4,0-5.236,1.7-5.236,4.148a3.554,3.554,0,0,0,2.448,3.4c1.36.612,1.768,1.02,1.768,1.564,0,.816-1.088,1.224-2.04,1.224a7.391,7.391,0,0,1-3.264-.68l-.476-.2L248,187.839a11.025,11.025,0,0,0,3.876.68c3.6,0,5.984-1.7,5.984-4.284,0-1.428-.884-2.516-2.924-3.4-1.224-.612-1.972-.952-1.972-1.564,0-.544.612-1.088,1.972-1.088a6.237,6.237,0,0,1,2.584.476l.34.136Z" transform="translate(-226.921 0)" fill="#293688"/>
    <path id="Path_59938" data-name="Path 59938" d="M365.268,180.4c-.816,0-1.428.068-1.768.884l-5.1,11.355h3.672l.68-2.04H367.1l.408,2.04h3.264L367.92,180.4Zm-1.564,8.16c.2-.612,1.36-3.6,1.36-3.6s.272-.748.476-1.224l.2,1.156s.68,3.06.816,3.74H363.7Z" transform="translate(-327.938 -4.392)" fill="#3c58bf"/>
    <path id="Path_59939" data-name="Path 59939" d="M366.084,180.4c-.816,0-1.428.068-1.768.884L358.4,192.639h3.672l.68-2.04H367.1l.408,2.04h3.264L367.919,180.4Zm-2.38,8.16c.272-.68,1.36-3.6,1.36-3.6s.272-.748.476-1.224l.2,1.156s.68,3.06.816,3.74H363.7Z" transform="translate(-327.937 -4.392)" fill="#293688"/>
    <path id="Path_59940" data-name="Path 59940" d="M56.3,189.7l-.34-1.768a9.857,9.857,0,0,0-4.76-5.372l3.06,10.879h3.672L63.439,181.2H59.768Z" transform="translate(-46.848 -5.124)" fill="#3c58bf"/>
    <path id="Path_59941" data-name="Path 59941" d="M56.3,189.7l-.34-1.768a9.857,9.857,0,0,0-4.76-5.372l3.06,10.879h3.672L63.439,181.2H60.448Z" transform="translate(-46.848 -5.124)" fill="#293688"/>
    <path id="Path_59942" data-name="Path 59942" d="M0,180.4l.612.136c4.352,1.02,7.344,3.6,8.5,6.664l-1.224-5.78c-.2-.816-.816-1.02-1.564-1.02Z" transform="translate(0 -4.392)" fill="#ffbc00"/>
    <path id="Path_59943" data-name="Path 59943" d="M0,180.4c4.352,1.02,7.956,3.672,9.112,6.732L7.956,182.3a1.66,1.66,0,0,0-1.632-1.292Z" transform="translate(0 -4.392)" fill="#f7981d"/>
    <path id="Path_59944" data-name="Path 59944" d="M0,180.4c4.352,1.02,7.956,3.672,9.112,6.732L8.3,184.48a2.4,2.4,0,0,0-1.428-1.972Z" transform="translate(0 -4.392)" fill="#ed7c00"/>
    <path id="Path_59945" data-name="Path 59945" d="M60.432,203.2l-2.312-2.312-1.088,2.584-.272-1.7A9.857,9.857,0,0,0,52,196.4l3.06,10.879h3.672Zm6.324,4.08-2.924-2.992-.544,2.992Zm7.82-4.216c.272.272.408.476.34.748,0,.816-1.088,1.224-2.04,1.224a7.391,7.391,0,0,1-3.264-.68l-.476-.2-.476,2.788a11.025,11.025,0,0,0,3.876.68,6.732,6.732,0,0,0,4.964-1.7Zm3.944,4.216h3.2l.68-2.04h4.352l.408,2.04h3.264l-1.156-4.964-4.08-3.944.2,1.088s.68,3.06.816,3.74H83.346c.272-.68,1.36-3.6,1.36-3.6s.272-.748.476-1.224" transform="translate(-47.58 -19.032)" fill="#051244"/>
  </g>
</svg>
