<svg xmlns="http://www.w3.org/2000/svg" width="16.018" height="25" viewBox="0 0 16.018 25">
  <g id="Group_102575" data-name="Group 102575" transform="translate(145.5 -31.5)">
    <g id="g2224" transform="translate(-138.215 32)">
      <path id="path2226" d="M0-173.48v-3.561a1.449,1.449,0,0,1,.977-1.37L5.589-180l.472,1.37-4.612,1.589v3.561" transform="translate(0 180)" fill="none" stroke="#000" stroke-linecap="round" stroke-linejoin="round" stroke-miterlimit="10" stroke-width="1"/>
    </g>
    <g id="g2228" transform="translate(-143.551 42.141)">
      <path id="path2230" d="M0,0,1.473,13.859h9.175L12.121,0" fill="none" stroke="#000" stroke-linecap="round" stroke-linejoin="round" stroke-miterlimit="10" stroke-width="1"/>
    </g>
    <g id="g2232" transform="translate(-145 38.519)">
      <path id="path2234" d="M-79.326-57.827h11.313a.724.724,0,0,1,.724.724.724.724,0,0,1-.724.724H-81.582a.724.724,0,0,1-.724-.724.724.724,0,0,1,.724-.724h.724L-80.109-60h10.623l.749,2.173" transform="translate(82.306 60)" fill="none" stroke="#000" stroke-linecap="round" stroke-linejoin="round" stroke-miterlimit="10" stroke-width="1"/>
    </g>
  </g>
</svg>
