<svg xmlns="http://www.w3.org/2000/svg" width="23.267" height="20.002" viewBox="0 0 23.267 20.002">
  <g id="Group_102672" data-name="Group 102672" transform="translate(0 -28.588)">
    <path id="Path_59949" data-name="Path 59949" d="M23.234,39.906h0l-4.393-11.03a.457.457,0,0,0-.593-.256h0L.426,35.717a.448.448,0,0,0-.183.145.452.452,0,0,0-.243.4V48.134a.457.457,0,0,0,.457.457H19.639a.457.457,0,0,0,.457-.457V41.648L22.979,40.5A.457.457,0,0,0,23.234,39.906Zm-4.051,7.771H.913V36.715H19.183ZM7.621,35.8l7.647-3.047a3.634,3.634,0,0,0,2.618,1.129l.763,1.918ZM20.1,40.667V36.259a.457.457,0,0,0-.457-.457h-.007l-.968-2.431a.378.378,0,0,0-.037-.058.451.451,0,0,0-.477-.352,2.731,2.731,0,0,1-2.395-1.031.453.453,0,0,0-.586-.1.514.514,0,0,0-.064.012L5.768,35.558a.451.451,0,0,0-.251.244H2.682l15.479-6.164,4.055,10.183Z" fill="#231c3e"/>
    <path id="Path_59950" data-name="Path 59950" d="M32.326,193.91a2.731,2.731,0,0,1,1.844,1.842.457.457,0,0,0,.438.326.418.418,0,0,0,.07-.01.425.425,0,0,0,.063.013H45.7a.393.393,0,0,0,.056-.011.425.425,0,0,0,.514-.313v0a2.731,2.731,0,0,1,1.844-1.844.451.451,0,0,0,.313-.5.46.46,0,0,0,.013-.068v-3.654a.413.413,0,0,0-.014-.068.45.45,0,0,0-.313-.5,2.728,2.728,0,0,1-1.843-1.844.451.451,0,0,0-.506-.313.436.436,0,0,0-.064-.013H34.74a.431.431,0,0,0-.068.014.451.451,0,0,0-.5.313,2.731,2.731,0,0,1-1.844,1.843.451.451,0,0,0-.313.5.461.461,0,0,0-.013.068v3.654a.421.421,0,0,0,.013.064A.452.452,0,0,0,32.326,193.91Zm.587-4.039a3.624,3.624,0,0,0,2.012-2.012h10.59a3.625,3.625,0,0,0,2.013,2.012v3.283a3.628,3.628,0,0,0-2.012,2.012H34.926a3.628,3.628,0,0,0-2.012-2.012Z" transform="translate(-30.173 -149.316)" fill="#231c3e"/>
    <path id="Path_59951" data-name="Path 59951" d="M81.709,224.426a2.74,2.74,0,1,0-2.74-2.74A2.74,2.74,0,0,0,81.709,224.426Zm0-4.567a1.827,1.827,0,1,1-1.827,1.827A1.827,1.827,0,0,1,81.709,219.858Zm-5.024,2.512a.685.685,0,1,0-.685-.685A.685.685,0,0,0,76.685,222.37Zm0-.913a.228.228,0,1,1-.228.228A.228.228,0,0,1,76.685,221.457Zm10.048.913a.685.685,0,1,0-.685-.685A.685.685,0,0,0,86.733,222.37Zm0-.913a.228.228,0,1,1-.228.228A.228.228,0,0,1,86.733,221.457Z" transform="translate(-71.661 -179.489)" fill="#231c3e"/>
  </g>
</svg>
