<svg id="Group_100887" data-name="Group 100887" xmlns="http://www.w3.org/2000/svg" width="28.8" height="28.8" viewBox="0 0 28.8 28.8">
  <path id="Path_11946" data-name="Path 11946" d="M27.675,28.8a1.125,1.125,0,0,1-1.125-1.125,4.041,4.041,0,0,0-4.023-4.05h-.953a4.041,4.041,0,0,0-4.023,4.05,1.125,1.125,0,0,1-2.25,0,6.294,6.294,0,0,1,6.273-6.3h.953a6.294,6.294,0,0,1,6.273,6.3A1.125,1.125,0,0,1,27.675,28.8Zm-.9-13.894a4.781,4.781,0,1,0-4.781,4.781A4.787,4.787,0,0,0,26.775,14.906Zm-2.25,0a2.531,2.531,0,1,1-2.531-2.531A2.534,2.534,0,0,1,24.525,14.906ZM13.05,27.675a1.125,1.125,0,0,0-1.125-1.125H6.749a4.5,4.5,0,0,1-4.5-4.5V6.749a4.5,4.5,0,0,1,4.5-4.5H17.1a4.5,4.5,0,0,1,4.5,4.5,1.125,1.125,0,0,0,2.25,0A6.757,6.757,0,0,0,17.1,0H6.749A6.757,6.757,0,0,0,0,6.749v15.3A6.757,6.757,0,0,0,6.749,28.8h5.176A1.125,1.125,0,0,0,13.05,27.675Zm1.856-14.906a1.125,1.125,0,0,0-1.125-1.125H7.706a1.125,1.125,0,1,0,0,2.25h6.075A1.125,1.125,0,0,0,14.906,12.769Zm2.25-4.331a1.125,1.125,0,0,0-1.125-1.125H7.706a1.125,1.125,0,1,0,0,2.25h8.325A1.125,1.125,0,0,0,17.156,8.438Zm-2.25,12.937a1.125,1.125,0,0,0-1.125-1.125H7.706a1.125,1.125,0,1,0,0,2.25h6.075A1.125,1.125,0,0,0,14.906,21.375Zm0-4.331a1.125,1.125,0,0,0-1.125-1.125H7.706a1.125,1.125,0,1,0,0,2.25h6.075A1.125,1.125,0,0,0,14.906,17.044Z" transform="translate(0 0)" fill="#fff"/>
</svg>
