<svg xmlns="http://www.w3.org/2000/svg" width="26.743" height="24" viewBox="0 0 26.743 24">
  <g id="Group_102559" data-name="Group 102559" transform="translate(0 -24)">
    <g id="Group_102558" data-name="Group 102558" transform="translate(0 24)">
      <path id="Path_59902" data-name="Path 59902" d="M59.717,170.261a.462.462,0,0,1-.453-.521,2.081,2.081,0,0,1,1.4-1.764.457.457,0,1,1,.257.877,1.183,1.183,0,0,0-.754,1.015A.457.457,0,0,1,59.717,170.261Z" transform="translate(-55.873 -159.731)"/>
      <path id="Path_59903" data-name="Path 59903" d="M34.843,239.174c-.392,0-.91-.154-1.034-.577a.457.457,0,0,1,.826-.371c.11.045.373.061.468-.052a.457.457,0,1,1,.7.59A1.228,1.228,0,0,1,34.843,239.174Z" transform="translate(-31.86 -225.783)"/>
      <g id="Group_102557" data-name="Group 102557" transform="translate(0 0)">
        <g id="XMLID_566_" transform="translate(0 0.541)">
          <g id="XMLID_637_">
            <g id="XMLID_569_" transform="translate(0 3.253)">
              <g id="XMLID_1456_" transform="translate(8.605 4.406)">
                <path id="Path_59904" data-name="Path 59904" d="M155.3,172.953c-2.641,0-4.71-1.195-4.71-2.72s2.069-2.72,4.71-2.72a8.314,8.314,0,0,1,1.152.079.457.457,0,0,1-.127.905,7.4,7.4,0,0,0-1.025-.07c-2.238,0-3.8.952-3.8,1.806s1.56,1.806,3.8,1.806,3.8-.952,3.8-1.806a.873.873,0,0,0-.13-.444.456.456,0,1,1,.786-.464,1.775,1.775,0,0,1,.256.908C160.011,171.759,157.942,172.953,155.3,172.953Z" transform="translate(-150.591 -167.514)"/>
              </g>
              <path id="Path_59905" data-name="Path 59905" d="M25.776,96.184a8.83,8.83,0,0,0-4.88-4.5,19.823,19.823,0,0,0-7.581-1.279c-4.243,0-7.207.6-9.328,1.883a7.691,7.691,0,0,0-2.926,3.124A11.21,11.21,0,0,0,0,100.51c0,3.673,1.337,6.379,3.979,8.044,2.2,1.385,5.252,2.059,9.337,2.059s7.128-.679,9.336-2.077c2.64-1.671,3.979-4.371,3.979-8.026a10.417,10.417,0,0,0-.855-4.325ZM4.459,93.072c1.972-1.195,4.786-1.751,8.856-1.751,4.221,0,9.665.909,11.63,5.241a9.251,9.251,0,0,1,.764,3.512l-.7.015c-.536.011-.922.64-.922,1.121v1.252a.239.239,0,1,1-.478,0v-.625a1.424,1.424,0,1,0-2.849,0v2.126a.491.491,0,0,1-.487.494h-.4a.5.5,0,0,1-.487-.494,2.145,2.145,0,0,0-4.29-.048v1.12a.962.962,0,1,1-1.925,0v-1.426a1.7,1.7,0,0,0-1.7-1.7,1.678,1.678,0,0,0-1.687,1.667c0,.408,0,.853,0,1.218a1.093,1.093,0,0,1-1.114,1.086,1.139,1.139,0,0,1-1.053-1.113v-1.871a2.278,2.278,0,0,0-2.268-2.283,1.879,1.879,0,0,0-1.871,1.883.261.261,0,0,1-.259.263.87.87,0,0,1-.865-.874,1.183,1.183,0,0,0-1.151-1.267H.914c-.021-2.974.885-5.931,3.546-7.543Zm17.7,14.691c-2.03,1.284-5.007,1.935-8.849,1.935-3.907,0-6.8-.628-8.851-1.919A7.543,7.543,0,0,1,.95,101.529h.258c.2,0,.25.194.239.353a1.784,1.784,0,0,0,1.777,1.788A1.176,1.176,0,0,0,4.4,102.493a.965.965,0,0,1,.959-.969,1.364,1.364,0,0,1,1.356,1.369v1.871A2.056,2.056,0,0,0,8.7,106.791a2.017,2.017,0,0,0,2-2c0-.365,0-.809,0-1.218a.758.758,0,0,1,.775-.752.789.789,0,0,1,.787.79v1.426a1.875,1.875,0,1,0,3.749,0v-1.12a1.233,1.233,0,0,1,2.465.049,1.416,1.416,0,0,0,1.4,1.408h.4a1.405,1.405,0,0,0,1.4-1.408v-2.126a.512.512,0,1,1,1.024,0v.625a1.151,1.151,0,1,0,2.3,0V101.21a.242.242,0,0,1,.118-.209l.592-.012c-.107,3.115-1.269,5.334-3.545,6.775Z" transform="translate(0 -90.407)"/>
              <g id="XMLID_571_" transform="translate(7.843 1.941)">
                <path id="Path_59906" data-name="Path 59906" d="M137.706,126.493a.461.461,0,0,1-.421-.632l.5-1.211a.456.456,0,1,1,.843.35l-.5,1.211A.456.456,0,0,1,137.706,126.493Z" transform="translate(-137.25 -124.368)"/>
              </g>
              <g id="XMLID_572_" transform="translate(11.446 1.715)">
                <path id="Path_59907" data-name="Path 59907" d="M200.76,121.566a.458.458,0,0,1-.244-.844,1.785,1.785,0,0,1,1.987.018.457.457,0,0,1-.542.735.916.916,0,0,0-.958.02A.451.451,0,0,1,200.76,121.566Z" transform="translate(-200.304 -120.425)"/>
              </g>
              <g id="XMLID_573_" transform="translate(16.204 1.941)">
                <path id="Path_59908" data-name="Path 59908" d="M284.371,126.191a.456.456,0,0,1-.426-.292l-.35-.908a.456.456,0,1,1,.851-.33l.35.908A.461.461,0,0,1,284.371,126.191Z" transform="translate(-283.564 -124.368)"/>
              </g>
              <g id="XMLID_574_" transform="translate(19.059 3.152)">
                <path id="Path_59909" data-name="Path 59909" d="M334.636,148.468a.461.461,0,0,1-.421-.632c.313-.757-.485-1.433-.519-1.461a.457.457,0,0,1,.578-.707,2.318,2.318,0,0,1,.784,2.518A.456.456,0,0,1,334.636,148.468Z" transform="translate(-333.53 -145.566)"/>
              </g>
              <g id="XMLID_575_" transform="translate(22.062 4.716)">
                <path id="Path_59910" data-name="Path 59910" d="M387.29,174.959a.456.456,0,0,1-.378-.2l-.751-1.11a.456.456,0,1,1,.755-.513l.751,1.11A.461.461,0,0,1,387.29,174.959Z" transform="translate(-386.082 -172.935)"/>
              </g>
              <g id="XMLID_577_" transform="translate(5.889 6.669)">
                <path id="Path_59911" data-name="Path 59911" d="M103.868,209.3a.457.457,0,0,1-.44-.336l-.35-1.277a.456.456,0,1,1,.88-.242l.35,1.277a.457.457,0,0,1-.44.578Z" transform="translate(-103.062 -207.107)"/>
              </g>
            </g>
            <g id="XMLID_1147_" transform="translate(1.511)">
              <g id="XMLID_606_">
                <path id="Path_59912" data-name="Path 59912" d="M27.863,36.328A1.426,1.426,0,1,1,29.287,34.9,1.426,1.426,0,0,1,27.863,36.328Zm0-1.938a.512.512,0,1,0,.511.512A.512.512,0,0,0,27.863,34.39Z" transform="translate(-26.44 -33.476)"/>
              </g>
            </g>
          </g>
          <g id="XMLID_567_" transform="translate(15.595 8.273)">
            <ellipse id="Ellipse_1415" data-name="Ellipse 1415" cx="0.456" cy="0.457" rx="0.456" ry="0.457"/>
          </g>
        </g>
        <path id="Path_59913" data-name="Path 59913" d="M334.15,231.369c-.3,0-.636-.118-.643-.47a.461.461,0,0,1,.579-.45.893.893,0,0,0,.935-.648.456.456,0,1,1,.889.205,1.836,1.836,0,0,1-1.76,1.363Z" transform="translate(-314.45 -217.706)"/>
        <g id="XMLID_45_" transform="translate(21.075)">
          <path id="Path_59914" data-name="Path 59914" d="M371.242,29.49l-.779-1.439-1.413-.781a.464.464,0,0,1-.012-.809l1.425-.787.773-1.428a.457.457,0,0,1,.8-.012l.779,1.439,1.413.781a.464.464,0,0,1,.011.809l-1.425.787-.779,1.439A.453.453,0,0,1,371.242,29.49ZM370.2,26.862l.815.45a.456.456,0,0,1,.18.182l.444.821.444-.821a.456.456,0,0,1,.18-.182l.815-.45-.815-.45a.456.456,0,0,1-.18-.182l-.444-.821-.444.821a.456.456,0,0,1-.18.182Z" transform="translate(-368.807 -24)"/>
        </g>
      </g>
    </g>
  </g>
</svg>
