<svg xmlns="http://www.w3.org/2000/svg" width="24" height="24" viewBox="0 0 24 24">
  <g id="Group_102574" data-name="Group 102574" transform="translate(0 0)">
    <g id="Group_102561" data-name="Group 102561" transform="translate(0 8.218)">
      <g id="Group_102560" data-name="Group 102560">
        <path id="Path_59915" data-name="Path 59915" d="M23.531,176.794H19.687V175.8a.469.469,0,0,0-.469-.469H9.094a.469.469,0,0,0,0,.938H18.75v3.594a8.931,8.931,0,0,1-4.407,7.688h-9a8.931,8.931,0,0,1-4.407-7.687v-3.594H4.078a.469.469,0,0,0,0-.937H.469A.469.469,0,0,0,0,175.8v4.062a9.827,9.827,0,0,0,3.7,7.688H.469a.469.469,0,0,0-.469.469,3.1,3.1,0,0,0,3.094,3.094H17.719a3.1,3.1,0,0,0,3.094-3.094.469.469,0,0,0-.469-.469H15.991a9.9,9.9,0,0,0,2.17-2.422h1.323A4.521,4.521,0,0,0,24,180.614v-3.352A.469.469,0,0,0,23.531,176.794Zm-3.708,11.7a2.16,2.16,0,0,1-2.1,1.688H3.094a2.16,2.16,0,0,1-2.1-1.687H19.824Zm-.136-8.625v-.258h1.5v1.008a1.705,1.705,0,0,1-1.7,1.7h-.106A9.868,9.868,0,0,0,19.687,179.864Zm3.375.75a3.582,3.582,0,0,1-3.578,3.578h-.8a9.786,9.786,0,0,0,.4-.937h.4a2.644,2.644,0,0,0,2.641-2.641v-1.477a.469.469,0,0,0-.469-.469H19.687v-.937h3.375Z" transform="translate(0 -175.333)"/>
      </g>
    </g>
    <g id="Group_102563" data-name="Group 102563" transform="translate(8.84 0)">
      <g id="Group_102562" data-name="Group 102562" transform="translate(0 0)">
        <path id="Path_59916" data-name="Path 59916" d="M190.037,2.594l-.244-.306a1.222,1.222,0,0,1,0-1.528.469.469,0,1,0-.734-.583,2.155,2.155,0,0,0,0,2.695l.244.306a1.6,1.6,0,0,1,0,2l-.25.315a.469.469,0,1,0,.734.583l.25-.315A2.53,2.53,0,0,0,190.037,2.594Z" transform="translate(-188.585 0)"/>
      </g>
    </g>
    <g id="Group_102565" data-name="Group 102565" transform="translate(11.438 1.054)">
      <g id="Group_102564" data-name="Group 102564">
        <path id="Path_59917" data-name="Path 59917" d="M245.466,25.078l-.244-.306a1.222,1.222,0,0,1,0-1.528.469.469,0,0,0-.734-.583,2.155,2.155,0,0,0,0,2.695l.244.306a1.6,1.6,0,0,1,0,2l-.25.315a.469.469,0,1,0,.734.583l.25-.315A2.53,2.53,0,0,0,245.466,25.078Z" transform="translate(-244.014 -22.484)"/>
      </g>
    </g>
    <g id="Group_102567" data-name="Group 102567" transform="translate(6.242 1.054)">
      <g id="Group_102566" data-name="Group 102566">
        <path id="Path_59918" data-name="Path 59918" d="M134.607,25.079l-.244-.306a1.222,1.222,0,0,1,0-1.528.469.469,0,0,0-.734-.583,2.155,2.155,0,0,0,0,2.695l.244.306a1.6,1.6,0,0,1,0,2l-.25.315a.469.469,0,1,0,.734.583l.25-.315A2.53,2.53,0,0,0,134.607,25.079Z" transform="translate(-133.156 -22.485)"/>
      </g>
    </g>
    <g id="Group_102569" data-name="Group 102569" transform="translate(6.244 8.218)">
      <g id="Group_102568" data-name="Group 102568">
        <path id="Path_59919" data-name="Path 59919" d="M134.01,175.467a.469.469,0,1,0,.137.331A.472.472,0,0,0,134.01,175.467Z" transform="translate(-133.21 -175.33)"/>
      </g>
    </g>
    <g id="Group_102571" data-name="Group 102571" transform="translate(14.428 12.281)">
      <g id="Group_102570" data-name="Group 102570">
        <path id="Path_59920" data-name="Path 59920" d="M310.336,262a.469.469,0,0,0-.469.469,6.716,6.716,0,0,1-1.936,4.691.469.469,0,1,0,.666.66,7.66,7.66,0,0,0,2.208-5.351A.469.469,0,0,0,310.336,262Z" transform="translate(-307.795 -262)"/>
      </g>
    </g>
    <g id="Group_102573" data-name="Group 102573" transform="translate(12.888 18.475)">
      <g id="Group_102572" data-name="Group 102572">
        <path id="Path_59921" data-name="Path 59921" d="M275.833,394.375a.469.469,0,0,0-.639-.178l-.011.006a.469.469,0,1,0,.461.817l.011-.006A.469.469,0,0,0,275.833,394.375Z" transform="translate(-274.945 -394.136)"/>
      </g>
    </g>
  </g>
</svg>
